<?xml version="1.0" encoding="utf-8"?>
<!-- Generator: Adobe Illustrator 22.0.0, SVG Export Plug-In . SVG Version: 6.00 Build 0)  -->
<svg version="1.1" xmlns="http://www.w3.org/2000/svg" xmlns:xlink="http://www.w3.org/1999/xlink" x="0px" y="0px"
	 viewBox="0 0 1366 768" style="enable-background:new 0 0 1366 768;" xml:space="preserve">
<style type="text/css">
	.st0{fill:#00FF00;}
	.st1{fill:#0000FF;}
	.st2{fill:none;stroke:#0000FF;stroke-width:2;stroke-miterlimit:10;}
	.st3{display:none;}
	.st4{fill:#FF0000;}
	.st5{fill:none;stroke:#FF0000;stroke-width:6;stroke-miterlimit:10;}
	.st6{fill:none;stroke:#0000FF;stroke-width:6;stroke-miterlimit:10;}
	.st7{fill:none;stroke:#FFFF00;stroke-width:4;stroke-miterlimit:10;}
</style>
<g id="Layer_2">
	<ellipse class="st0" cx="192" cy="154.7" rx="3.8" ry="5.4"/>
	<ellipse class="st0" cx="155.8" cy="213.4" rx="3.8" ry="5.4"/>
	<ellipse class="st0" cx="159.6" cy="285.1" rx="3.8" ry="5.4"/>
	<ellipse class="st0" cx="188.2" cy="356.8" rx="3.8" ry="5.4"/>
	<ellipse class="st0" cx="226.4" cy="389.4" rx="3.8" ry="5.4"/>
	<ellipse class="st0" cx="344.6" cy="152.6" rx="3.8" ry="5.4"/>
	<ellipse class="st0" cx="380.8" cy="211.2" rx="3.8" ry="5.4"/>
	<ellipse class="st0" cx="377" cy="282.9" rx="3.8" ry="5.4"/>
	<ellipse class="st0" cx="348.4" cy="354.7" rx="3.8" ry="5.4"/>
	<ellipse class="st0" cx="310.2" cy="387.3" rx="3.8" ry="5.4"/>
	<ellipse class="st0" cx="243.5" cy="202.5" rx="3.8" ry="5.4"/>
	<ellipse class="st0" cx="306.4" cy="224.3" rx="3.8" ry="5.4"/>
	<ellipse class="st0" cx="226.4" cy="289.5" rx="3.8" ry="5.4"/>
	<ellipse class="st0" cx="298.8" cy="313.4" rx="3.8" ry="5.4"/>
	<ellipse class="st0" cx="268.3" cy="361.2" rx="3.8" ry="5.4"/>
	<ellipse class="st0" cx="270.2" cy="409" rx="3.8" ry="5.4"/>
	<ellipse class="st0" cx="266.4" cy="113.4" rx="3.8" ry="5.4"/>
	<ellipse class="st0" cx="230.2" cy="445.9" rx="3.8" ry="5.4"/>
	<ellipse class="st0" cx="304.5" cy="445.9" rx="3.8" ry="5.4"/>
</g>
<g id="Layer_4">
	<g>
		<path class="st1" d="M262.3,117.4l-20.9,81.3l-47-43.6L262.3,117.4 M265.4,113.4l-74.4,41.3l51.5,47.8L265.4,113.4L265.4,113.4z"
			/>
	</g>
	<g>
		<path class="st1" d="M340.7,157.1l-36.1,64.7l-56.8-19.6L340.7,157.1 M345.5,152.6l-103,50l62.9,21.7L345.5,152.6L345.5,152.6z"/>
	</g>
	<g>
		<path class="st1" d="M307.1,228.3l65,54.1l-72,28L307.1,228.3 M305.5,224.3l-7.6,89.1l78.2-30.4L305.5,224.3L305.5,224.3z"/>
	</g>
	<polyline class="st2" points="381.7,211.2 305.5,224.3 225.4,289.5 297.8,313.4 267.3,361.2 225.4,389.4 269.3,409 229.2,446.4 	
		"/>
	<polyline class="st2" points="305.5,446.4 269.3,409 309.3,387.3 265.4,361.2 225.4,289.5 242.6,202.5 154.9,213.4 	"/>
	<polyline class="st2" points="187.3,356.8 225.4,289.5 158.7,285.1 242.6,202.5 	"/>
	<line class="st2" x1="297.8" y1="313.4" x2="347.4" y2="354.7"/>
</g>
<g id="Layer_3">
	<g>
		<path class="st0" d="M265.5,115.7l78.6,38.4l35.6,57.6l-5.6,70.8l-28.3,71L308,385.7l-0.6,0.5l-0.1,0.8l-3.7,57.3h-72.5l-3.7-55.1
			l-0.1-0.8l-0.6-0.5l-37.8-32.3l-28.3-70.9l-2.8-71.8l35.6-57.7L265.5,115.7 M265.4,113.4L192,153.6l-36.2,58.7l2.9,72.8l28.6,71.7
			l38.1,32.6l3.8,57h76.3l3.8-59.2l38.1-32.6l28.6-71.7l5.7-71.7l-36.2-58.7L265.4,113.4L265.4,113.4z"/>
	</g>
</g>
<g id="Layer_1" class="st3">
	
		<image style="display:inline;overflow:visible;opacity:0.4;" width="2448" height="3264" xlink:href="../../New Doc 2018-01-19_1.jpg"  transform="matrix(-9.535064e-09 -0.2276 0.2181 -9.950232e-09 351.5007 696.6245)">
	</image>
</g>
<g id="Layer_7">
	<g>
		<path class="st4" d="M707.5,421.5v59.7h-35.7v-59.7H707.5 M713.5,415.5h-47.7v71.7h47.7V415.5L713.5,415.5z"/>
	</g>
	<path class="st5" d="M722.1,392.7c0,0,19.1,2.2,19.1,0s19.1-50,17.2-63c-1.9-13-9.5-15.2-17.2,0c-3,5.9-1.9,38.2-1.9,76.1
		c-0.1,59.7,0,132.6,0,132.6h1.9V405.7h32.4v80.4h28.6v-71.7h40v23.9h-34.3v-10.9"/>
	<polyline class="st5" points="802.1,486.1 853.6,486.1 853.6,414.4 884.1,414.4 884.1,434 	"/>
	<g>
		<path class="st4" d="M884.1,423.1c-2.1,0-3.8,2.9-3.8,6.5c0,3.6,1.7,6.5,3.8,6.5s3.8-2.9,3.8-6.5
			C887.9,426,886.2,423.1,884.1,423.1L884.1,423.1z"/>
	</g>
	<polyline class="st5" points="893.6,486.1 928,486.1 928,450.3 898.4,450.3 898.4,413.3 927,413.3 	"/>
	<g>
		<path class="st4" d="M893.6,479.6c-2.1,0-3.8,2.9-3.8,6.5s1.7,6.5,3.8,6.5c2.1,0,3.8-2.9,3.8-6.5S895.7,479.6,893.6,479.6
			L893.6,479.6z"/>
	</g>
	<g>
		<path class="st4" d="M928,407.9c-2.1,0-3.8,2.9-3.8,6.5s1.7,6.5,3.8,6.5c2.1,0,3.8-2.9,3.8-6.5S930.1,407.9,928,407.9L928,407.9z"
			/>
	</g>
	<g>
		<path class="st4" d="M722.1,386.2c-2.1,0-3.8,2.9-3.8,6.5s1.7,6.5,3.8,6.5s3.8-2.9,3.8-6.5S724.2,386.2,722.1,386.2L722.1,386.2z"
			/>
	</g>
</g>
<g id="Layer_8">
	<path class="st6" d="M971.8,486.1v-73.9h36.2h0.9c0,0.9-0.1,153.6-0.5,154.5c-3.8,9.4-3.9,9.4-7.9,1.4c-0.8-1.6-0.9-3.5-0.8-5.4
		c1.9-51.5,9.5-54.2,20.6-77.7v-73.9h13.3v15.2h15.3V485h13.3v-71.7h38.1V485h-37.2"/>
</g>
<g id="Layer_9">
	<path class="st6" d="M1101.6,413.4h21l-0.2,72.8h38.1v-73.9h-9.5v30.4h23.1c4.3,0,8.1-3.4,9.1-8.3c12.7-37.7,21.8-76,23-112.7
		c0.1-2-0.2-4.1-0.9-6c-4.6-13.7-9.1-13.3-13.7,1c-0.4,1.3-0.6,2.6-0.6,4l3.8,250.2l0,0l-3.8-156.5h24.8v71.7h15.3"/>
	<ellipse class="st1" cx="971.8" cy="486.1" rx="3.8" ry="6.5"/>
	<g>
		<path class="st1" d="M1229.2,479.6c-2.1,0-3.8,2.9-3.8,6.5s1.7,6.5,3.8,6.5c2.1,0,3.8-2.9,3.8-6.5S1231.3,479.6,1229.2,479.6
			L1229.2,479.6z"/>
	</g>
</g>
<g id="Layer_5">
	<path class="st7" d="M214.9,456.8c36.7,1.7,72.2,1.7,106.8,0c10,4,10,8,0,12c-35.4,1.7-71,1.7-106.8,0
		C206.2,464.8,206.2,460.8,214.9,456.8z"/>
	<path class="st7" d="M214.9,500.3c35.5,1.2,71.1,1.2,106.8,0c10,4,10,8,0,12c-34.8,1.4-70.4,1.5-106.8,0
		C206.2,508.2,206.2,504.2,214.9,500.3z"/>
	<path class="st7" d="M208.2,478.5c40.2,1.4,80.3,1.5,120.1,0c10.6,4.3,10.6,8.7,0,13c-39.8,1.2-79.9,1.2-120.1,0
		C197.2,487.2,197.2,482.9,208.2,478.5z"/>
</g>
<g id="Layer_6">
	<path class="st5" d="M266.4,514.4c0,0-3.8,115.2,1.9,136.9s45.9,34.6,60.1,14.1c11.4-10.4,17.2-23.4,14.3-40.2
		c-7.4-10.6-14.3-14-20-1.1c-5.1,19.4,6.5,39.6,11.4,45.6c5.5,6.7,52.5,17.2,61.7-14.1l0-170.1v-53.7h49.8V329.7h3.8v156.5"/>
	<polyline class="st5" points="529.5,486.1 449.4,486.1 395.8,486.1 	"/>
	<polyline class="st5" points="485.6,486.1 485.6,414.4 527.6,414.4 527.6,440.5 491.4,440.5 491.4,431.8 	"/>
	<path class="st5" d="M539,414.4l21,71.7l22.3-69.9c0.5-1.6,0.3-3.3-0.6-4.6c-2.3-3.5-7.7-7.1-11.7,1.8c-0.3,0.7-0.5,1.5-0.4,2.3
		c1,37.3,3.8,35.7,9.5,35.7h45.8v-36.9h-22.9v71.7h49.6v-163c5.4-7.9,9.7-6.6,13.3,0c3.4,67.3-5.7,65.2-13.3,69.5h-21"/>
	<g>
		<path class="st4" d="M630.5,386.2c-2.1,0-3.8,2.9-3.8,6.5s1.7,6.5,3.8,6.5s3.8-2.9,3.8-6.5S632.6,386.2,630.5,386.2L630.5,386.2z"
			/>
	</g>
	<g>
		<path class="st4" d="M529.5,479.6c-2.1,0-3.8,2.9-3.8,6.5s1.7,6.5,3.8,6.5s3.8-2.9,3.8-6.5S531.6,479.6,529.5,479.6L529.5,479.6z"
			/>
	</g>
	<g>
		<path class="st4" d="M539,410.1c-2.1,0-3.8,2.9-3.8,6.5s1.7,6.5,3.8,6.5c2.1,0,3.8-2.9,3.8-6.5S541.1,410.1,539,410.1L539,410.1z"
			/>
	</g>
	<g>
		<path class="st4" d="M396,479.6c-2.1,0-3.8,2.9-3.8,6.5s1.7,6.5,3.8,6.5s3.8-2.9,3.8-6.5S398.1,479.6,396,479.6L396,479.6z"/>
	</g>
</g>
</svg>
